<svg width="493" height="83" viewBox="0 0 493 83" fill="none" xmlns="http://www.w3.org/2000/svg">
<path d="M0.104672 80.8622V1.11824H18.2807L54.8887 36.3182L92.2647 0.990242H109.929V80.8622H90.2167V22.7502L57.1927 53.5982H50.2807L19.5607 23.1342V80.8622H0.104672ZM129.897 1.11824H149.609L215.657 56.1582V1.11824H236.265V2.01424C235.753 2.52624 235.411 3.08091 235.241 3.67824C235.155 4.27557 235.113 5.29957 235.113 6.75024V80.8622H218.729L149.353 23.0062V80.8622H129.897V1.11824ZM299.369 80.8622V16.3502H252.777V0.990242H367.465V16.3502H318.953V80.8622H299.369ZM438.121 82.1422C427.795 82.1422 418.238 81.2889 409.449 79.5822C400.745 77.8756 393.235 75.3582 386.921 72.0302L396.905 58.4622L397.673 57.4382L398.441 57.9502C398.611 58.6329 398.91 59.1449 399.337 59.4862C399.849 59.8276 400.745 60.3396 402.025 61.0222C406.462 62.9849 411.881 64.4356 418.281 65.3742C424.766 66.3129 432.233 66.7822 440.681 66.7822C446.995 66.7822 452.585 66.4836 457.449 65.8862C462.313 65.2889 466.11 64.4356 468.841 63.3262C471.657 62.1316 473.065 60.7236 473.065 59.1022C473.065 57.9076 472.467 56.9262 471.273 56.1582C470.163 55.3049 468.201 54.4516 465.385 53.5982C462.569 52.7449 458.729 51.8062 453.865 50.7822C449.001 49.6729 442.814 48.3076 435.305 46.6862C424.126 44.4676 415.379 42.1636 409.065 39.7742C402.75 37.3849 398.313 34.6542 395.753 31.5822C393.278 28.4249 392.041 24.7556 392.041 20.5742C392.041 15.9662 394.046 12.1689 398.057 9.18224C402.153 6.11024 407.87 3.84891 415.209 2.39824C422.633 0.862239 431.379 0.0942383 441.449 0.0942383C447.251 0.0942383 452.969 0.478238 458.601 1.24624C464.318 2.01424 469.651 3.12357 474.601 4.57424C479.55 6.0249 483.859 7.85957 487.529 10.0782L478.953 22.3662L478.185 23.3902L477.417 22.8782C477.331 22.1956 476.99 21.7262 476.393 21.4702C475.881 21.1289 474.985 20.6596 473.705 20.0622C469.182 18.2702 463.891 17.0756 457.833 16.4782C451.859 15.7956 445.459 15.4542 438.633 15.4542C430.185 15.4542 423.571 15.9236 418.793 16.8622C414.099 17.8009 411.753 19.4649 411.753 21.8542C411.753 22.7076 412.307 23.5609 413.417 24.4142C414.526 25.2676 416.489 26.1636 419.305 27.1022C422.206 27.9556 426.217 28.9796 431.337 30.1742C436.542 31.2836 443.155 32.6489 451.177 34.2702C461.758 36.4036 470.035 38.7502 476.009 41.3102C482.067 43.7849 486.334 46.5156 488.809 49.5022C491.369 52.4036 492.649 55.6036 492.649 59.1022C492.649 63.3689 490.686 67.2516 486.761 70.7502C482.921 74.2489 476.947 77.0222 468.841 79.0702C460.819 81.1182 450.579 82.1422 438.121 82.1422Z" fill="#FF3D00"/>
</svg>
